<?xml version="1.0" encoding="UTF-8" standalone="no"?>
<!-- Created with Inkscape (http://www.inkscape.org/) -->

<svg
   version="1.1"
   id="svg2"
   width="32.428345"
   height="3.7795277"
   viewBox="0 0 32.428345 3.7795277"
   sodipodi:docname="logo-ryanair_mod.png"
   xml:space="preserve"
   inkscape:export-filename="logo-ryanair.svg"
   inkscape:export-xdpi="643.57001"
   inkscape:export-ydpi="643.57001"
   xmlns:inkscape="http://www.inkscape.org/namespaces/inkscape"
   xmlns:sodipodi="http://sodipodi.sourceforge.net/DTD/sodipodi-0.dtd"
   xmlns="http://www.w3.org/2000/svg"
   xmlns:svg="http://www.w3.org/2000/svg"><defs
     id="defs6" /><sodipodi:namedview
     id="namedview4"
     pagecolor="#ffffff"
     bordercolor="#000000"
     borderopacity="0.25"
     inkscape:showpageshadow="2"
     inkscape:pageopacity="0.0"
     inkscape:pagecheckerboard="0"
     inkscape:deskcolor="#d1d1d1"
     showgrid="false" /><g
     inkscape:groupmode="layer"
     inkscape:label="Image"
     id="g8"><g
       id="g349"
       inkscape:export-filename="logo-ryanair.svg"
       inkscape:export-xdpi="643.57001"
       inkscape:export-ydpi="643.57001"><path
         class="st0"
         d="M 7.0622475,3.7468765 6.0931651,2.4706533 H 5.7118868 V 3.7468765 H 4.5733474 V 0.39480476 h 1.6945703 c 1.24445,0 2.0387798,0.34420958 2.0387798,1.03792424 0,0.4818934 -0.4501202,0.7572611 -1.0696975,0.9320137 L 8.3437662,3.7468765 Z M 6.1990757,0.98260882 H 5.6801136 V 1.9146224 h 0.5507353 c 0.5878041,0 0.9002405,-0.1747525 0.9002405,-0.4501202 C 7.1681581,1.1202926 6.8927904,0.98260882 6.1990757,0.98260882 Z M 11.139807,2.4653578 v 1.2815187 h -1.138539 v -1.24445 L 8.3437662,0.39480476 h 1.24445 L 10.07011,1.0832239 c 0.206525,0.2753677 0.413051,0.6195773 0.481893,0.7943298 0.06884,-0.1747525 0.275368,-0.5189621 0.481893,-0.7943298 L 11.51579,0.39480476 h 1.24445 z m 4.315859,1.2815187 -0.312437,-0.6884191 h -1.413907 l -0.312436,0.6884191 h -1.170313 l 1.625729,-3.35207174 h 1.106766 L 16.604796,3.7468765 Z M 14.730178,2.089375 C 14.624267,1.8457805 14.486583,1.432729 14.417741,1.2579765 14.380673,1.432729 14.242989,1.7769386 14.142374,2.0523063 l -0.174753,0.4130515 h 0.932014 z M 19.739751,3.7468765 18.564143,2.2641276 C 18.38939,2.0576018 18.182865,1.7822341 18.08225,1.5757084 c 0,0.2065257 0.03707,0.5507353 0.03707,0.7572611 v 1.413907 H 17.081394 V 0.39480476 h 1.138539 L 19.3267,1.8775537 c 0.137683,0.2065258 0.381278,0.5189622 0.518962,0.6884192 0,-0.2065258 -0.03707,-0.5878041 -0.03707,-0.7943298 V 0.38950923 h 1.037924 V 3.7468765 Z m 4.765979,0 -0.312437,-0.6884191 H 22.779386 L 22.46695,3.7468765 H 21.291342 L 22.91707,0.39480476 h 1.13854 L 25.681338,3.7468765 Z M 23.780242,2.089375 C 23.674331,1.8457805 23.536648,1.432729 23.467806,1.2579765 23.430737,1.432729 23.293053,1.7769386 23.192438,2.0523063 l -0.174753,0.4130515 h 0.932014 z m 2.351216,1.6575015 V 0.39480476 h 1.13854 V 3.7468765 Z m 4.623,0 -1.000856,-1.2762232 h -0.381278 v 1.2762232 h -1.13854 V 0.39480476 h 1.694571 c 1.24445,0 2.038779,0.34420958 2.038779,1.03792424 0,0.4818934 -0.45012,0.7572611 -1.069697,0.9320137 l 1.101471,1.3821338 z M 29.891286,0.98260882 H 29.372324 V 1.9146224 h 0.550735 c 0.587804,0 0.900241,-0.1747525 0.900241,-0.4501202 0.03707,-0.3442096 -0.238299,-0.48189338 -0.932014,-0.48189338 z"
         id="path305"
         style="fill:#ffffff;stroke-width:0.0529553" /><g
         id="g311"
         transform="matrix(0.05295532,0,0,0.05295532,-1.204078,-15.369994)">
	<path
   class="st1"
   d="m 74,295.1 c 4.6,1.3 9.1,2.6 13.7,3.3 H 91 c 2,0 3.3,-0.7 5.2,-1.3 h 0.7 c 0,0.7 0,0.7 -0.7,1.3 -2.6,2 -5.2,3.3 -7.8,3.9 -0.7,0 -2,0.7 -2.6,0.7 -3.3,1.3 -7.2,1.3 -10.4,1.3 -6.5,-0.7 -12.4,-2.6 -18.9,-2.6 -5.9,-0.7 -11.7,2 -15,6.5 -0.7,2.6 -2,5.2 -2,7.8 0,2.6 3.9,3.3 5.2,5.2 l 2,3.9 c 0.7,2.6 2,5.2 3.9,7.8 1.3,1.3 2.6,3.3 4.6,3.9 2.6,2 4.6,3.9 5.9,6.5 1.3,2.6 2.6,4.6 3.3,7.2 0.7,1.3 1.3,2.6 1.3,4.6 v 0.7 c 0.7,1.3 0.7,2.6 1.3,3.3 v 0.7 c 0,0.7 0.7,2 0,2 -1.3,-1.3 -2,-2.6 -2.6,-3.9 -0.7,-2.6 -2.6,-5.2 -4.6,-7.8 -1.3,-1.3 -2.6,-3.3 -3.9,-4.6 -5.2,-5.9 -13,-9.8 -18.9,-15 0,0 0,-0.7 -0.7,-1.3 -0.7,-1.3 -1.3,-2 -2,-3.3 -1.3,-2.6 -3.3,-5.2 -4.6,-8.5 0,-1.3 -0.7,-2.6 -0.7,-3.9 v -0.7 c 0,-1.3 -3.3,-2 -1.3,-4.6 1.3,-1.3 5.2,-2.6 6.5,-5.2 v -1.3 c 0,0 0,-0.7 -0.7,-0.7 -0.7,0 -2.6,1.3 -2.6,-0.7 v -2 c 0.7,-1.3 0.7,-2.6 0.7,-3.9 0,-0.7 0.7,-0.7 1.3,-0.7 0.6,0 2,-0.7 2.6,-0.7 2,0 4.6,0 5.9,1.3 0.7,1.3 0,2.6 0,3.9 0,1.3 -1.3,2 -0.7,2.6 H 42 c 2.6,-2 5.2,-4.6 7.8,-7.2 2,-2 5.2,-2.6 7.8,-2 5.9,0.2 10.5,2.2 16.4,3.5 z"
   id="path307" />
	<path
   class="st1"
   d="m 59,305.5 c 0.7,1.3 0,2 -0.7,3.3 -3.3,4.6 -4.6,10.4 -6.5,15.7 h -0.7 c -0.7,0 -0.7,-0.7 -0.7,-1.3 0,-5.9 2,-11.1 4.6,-16.3 0.7,-0.7 1.3,-2 2.6,-1.3 0.7,-0.7 0.7,-0.1 1.4,-0.1 z m 9.1,1.3 c 0.7,2 -0.7,3.3 -1.3,5.2 -3.3,6.5 -7.2,13 -9.1,20.2 0,0 0,0.7 -0.7,0.7 h -0.7 c -0.7,-2.6 0,-5.9 0.7,-8.5 2,-5.9 3.9,-11.7 7.2,-17.6 0.7,0 0.7,-0.7 0.7,-0.7 1.2,0.1 2.5,0.1 3.2,0.7 z m 9.1,0.7 c 0.7,0.7 0.7,2 0,2.6 -3.9,8.5 -9.8,15.7 -12.4,24.8 l -2,5.9 c 0,0.7 -0.7,0.7 -0.7,0 -0.7,-0.7 0,-2 0,-2.6 0.7,-7.2 2.6,-14.3 5.9,-20.2 1.3,-3.3 3.3,-5.9 4.6,-9.1 0.7,-0.7 1.3,-2 2.6,-2 0.7,-0.1 1.4,-0.1 2,0.6 z m 10.5,0.6 c 0.7,1.3 0,2 0,3.3 -2.6,6.5 -7.2,12.4 -10.4,18.9 -3.3,5.2 -5.2,11.1 -7.2,16.3 -0.7,2 -1.3,3.3 -2,5.2 h -0.7 c -0.7,-0.7 -0.7,-1.3 -0.7,-2 0.7,-7.2 3.3,-13 5.9,-19.6 3.3,-7.2 7.2,-13.7 10.4,-20.9 0.7,-0.7 1.3,-2 2.6,-2.6 0.7,0.1 1.4,0.1 2.1,1.4 z"
   id="path309" />
</g></g></g><style
     type="text/css"
     id="style303">
	.st0{fill:#073590;}
	.st1{fill:#F1C931;}
</style></svg>
