<?xml version="1.0" encoding="UTF-8" standalone="no"?>
<!-- Generator: Adobe Illustrator 19.2.1, SVG Export Plug-In . SVG Version: 6.00 Build 0)  -->

<svg
   version="1.1"
   id="layer"
   x="0px"
   y="0px"
   viewBox="0 0 391163.22 45915.125"
   xml:space="preserve"
   sodipodi:docname="ryanair-vector-logo.svg"
   width="391163.22"
   height="45915.125"
   xmlns:inkscape="http://www.inkscape.org/namespaces/inkscape"
   xmlns:sodipodi="http://sodipodi.sourceforge.net/DTD/sodipodi-0.dtd"
   xmlns="http://www.w3.org/2000/svg"
   xmlns:svg="http://www.w3.org/2000/svg"><defs
   id="defs190" /><sodipodi:namedview
   id="namedview188"
   pagecolor="#ffffff"
   bordercolor="#000000"
   borderopacity="0.25"
   inkscape:showpageshadow="2"
   inkscape:pageopacity="0.0"
   inkscape:pagecheckerboard="0"
   inkscape:deskcolor="#d1d1d1"
   showgrid="false" />
<style
   type="text/css"
   id="style177">
	.st0{fill:#073590;}
	.st1{fill:#F1C931;}
</style>
<path
   class="st0"
   d="m -17484.677,-189617.47 -18.3,-24.1 h -7.2 v 24.1 h -21.5 v -63.3 h 32 c 23.5,0 38.5,6.5 38.5,19.6 0,9.1 -8.5,14.3 -20.2,17.6 l 20.9,26.1 z m -16.3,-52.2 h -9.8 v 17.6 h 10.4 c 11.1,0 17,-3.3 17,-8.5 0.7,-6.5 -4.5,-9.1 -17.6,-9.1 z m 93.3,28 v 24.2 h -21.5 v -23.5 l -31.3,-39.8 h 23.5 l 9.1,13 c 3.9,5.2 7.8,11.7 9.1,15 1.3,-3.3 5.2,-9.8 9.1,-15 l 9.1,-13 h 23.5 z m 81.5,24.2 -5.9,-13 h -26.7 l -5.9,13 h -22.1 l 30.7,-63.3 h 20.9 l 30.7,63.3 z m -13.7,-31.3 c -2,-4.6 -4.6,-12.4 -5.9,-15.7 -0.7,3.3 -3.3,9.8 -5.2,15 l -3.3,7.8 h 17.6 z m 94.6,31.3 -22.2,-28 c -3.3,-3.9 -7.2,-9.1 -9.1,-13 0,3.9 0.7,10.4 0.7,14.3 v 26.7 h -19.6 v -63.3 h 21.5 l 20.9,28 c 2.6,3.9 7.2,9.8 9.8,13 0,-3.9 -0.7,-11.1 -0.7,-15 v -26.1 h 19.6 v 63.4 z m 90,0 -5.9,-13 h -26.7 l -5.9,13 h -22.2 l 30.7,-63.3 h 21.5 l 30.7,63.3 z m -13.7,-31.3 c -2,-4.6 -4.6,-12.4 -5.9,-15.7 -0.7,3.3 -3.3,9.8 -5.2,15 l -3.3,7.8 h 17.6 z m 44.4,31.3 v -63.3 h 21.5 v 63.3 z m 87.3,0 -18.9,-24.1 h -7.2 v 24.1 h -21.5 v -63.3 h 32 c 23.5,0 38.5,6.5 38.5,19.6 0,9.1 -8.5,14.3 -20.2,17.6 l 20.8,26.1 z m -16.3,-52.2 h -9.8 v 17.6 h 10.4 c 11.1,0 17,-3.3 17,-8.5 0.7,-6.5 -4.5,-9.1 -17.6,-9.1 z"
   id="path179"
   inkscape:export-filename="logo-ryanair.svg"
   inkscape:export-xdpi="32.720001"
   inkscape:export-ydpi="32.720001" />
<g
   id="g185"
   transform="translate(-17640.777,-189978.47)">
	<path
   class="st1"
   d="m 74,295.1 c 4.6,1.3 9.1,2.6 13.7,3.3 H 91 c 2,0 3.3,-0.7 5.2,-1.3 h 0.7 c 0,0.7 0,0.7 -0.7,1.3 -2.6,2 -5.2,3.3 -7.8,3.9 -0.7,0 -2,0.7 -2.6,0.7 -3.3,1.3 -7.2,1.3 -10.4,1.3 -6.5,-0.7 -12.4,-2.6 -18.9,-2.6 -5.9,-0.7 -11.7,2 -15,6.5 -0.7,2.6 -2,5.2 -2,7.8 0,2.6 3.9,3.3 5.2,5.2 l 2,3.9 c 0.7,2.6 2,5.2 3.9,7.8 1.3,1.3 2.6,3.3 4.6,3.9 2.6,2 4.6,3.9 5.9,6.5 1.3,2.6 2.6,4.6 3.3,7.2 0.7,1.3 1.3,2.6 1.3,4.6 v 0.7 c 0.7,1.3 0.7,2.6 1.3,3.3 v 0.7 c 0,0.7 0.7,2 0,2 -1.3,-1.3 -2,-2.6 -2.6,-3.9 -0.7,-2.6 -2.6,-5.2 -4.6,-7.8 -1.3,-1.3 -2.6,-3.3 -3.9,-4.6 -5.2,-5.9 -13,-9.8 -18.9,-15 0,0 0,-0.7 -0.7,-1.3 -0.7,-1.3 -1.3,-2 -2,-3.3 -1.3,-2.6 -3.3,-5.2 -4.6,-8.5 0,-1.3 -0.7,-2.6 -0.7,-3.9 v -0.7 c 0,-1.3 -3.3,-2 -1.3,-4.6 1.3,-1.3 5.2,-2.6 6.5,-5.2 v -1.3 c 0,0 0,-0.7 -0.7,-0.7 -0.7,0 -2.6,1.3 -2.6,-0.7 v -2 c 0.7,-1.3 0.7,-2.6 0.7,-3.9 0,-0.7 0.7,-0.7 1.3,-0.7 0.6,0 2,-0.7 2.6,-0.7 2,0 4.6,0 5.9,1.3 0.7,1.3 0,2.6 0,3.9 0,1.3 -1.3,2 -0.7,2.6 H 42 c 2.6,-2 5.2,-4.6 7.8,-7.2 2,-2 5.2,-2.6 7.8,-2 5.9,0.2 10.5,2.2 16.4,3.5 z"
   id="path181" />
	<path
   class="st1"
   d="m 59,305.5 c 0.7,1.3 0,2 -0.7,3.3 -3.3,4.6 -4.6,10.4 -6.5,15.7 h -0.7 c -0.7,0 -0.7,-0.7 -0.7,-1.3 0,-5.9 2,-11.1 4.6,-16.3 0.7,-0.7 1.3,-2 2.6,-1.3 0.7,-0.7 0.7,-0.1 1.4,-0.1 z m 9.1,1.3 c 0.7,2 -0.7,3.3 -1.3,5.2 -3.3,6.5 -7.2,13 -9.1,20.2 0,0 0,0.7 -0.7,0.7 h -0.7 c -0.7,-2.6 0,-5.9 0.7,-8.5 2,-5.9 3.9,-11.7 7.2,-17.6 0.7,0 0.7,-0.7 0.7,-0.7 1.2,0.1 2.5,0.1 3.2,0.7 z m 9.1,0.7 c 0.7,0.7 0.7,2 0,2.6 -3.9,8.5 -9.8,15.7 -12.4,24.8 l -2,5.9 c 0,0.7 -0.7,0.7 -0.7,0 -0.7,-0.7 0,-2 0,-2.6 0.7,-7.2 2.6,-14.3 5.9,-20.2 1.3,-3.3 3.3,-5.9 4.6,-9.1 0.7,-0.7 1.3,-2 2.6,-2 0.7,-0.1 1.4,-0.1 2,0.6 z m 10.5,0.6 c 0.7,1.3 0,2 0,3.3 -2.6,6.5 -7.2,12.4 -10.4,18.9 -3.3,5.2 -5.2,11.1 -7.2,16.3 -0.7,2 -1.3,3.3 -2,5.2 h -0.7 c -0.7,-0.7 -0.7,-1.3 -0.7,-2 0.7,-7.2 3.3,-13 5.9,-19.6 3.3,-7.2 7.2,-13.7 10.4,-20.9 0.7,-0.7 1.3,-2 2.6,-2.6 0.7,0.1 1.4,0.1 2.1,1.4 z"
   id="path183" />
</g>
</svg>
