<?xml version="1.0" encoding="utf-8"?>
<!-- Generator: Adobe Illustrator 19.2.1, SVG Export Plug-In . SVG Version: 6.00 Build 0)  -->
<svg version="1.1" id="layer" xmlns="http://www.w3.org/2000/svg" xmlns:xlink="http://www.w3.org/1999/xlink" x="0px" y="0px"
	 viewBox="0 0 652 652" style="enable-background:new 0 0 652 652;" xml:space="preserve">
<style type="text/css">
	.st0{fill:#073590;}
	.st1{fill:#F1C931;}
</style>
<path class="st0" d="M156.1,361l-18.3-24.1h-7.2V361h-21.5v-63.3h32c23.5,0,38.5,6.5,38.5,19.6c0,9.1-8.5,14.3-20.2,17.6l20.9,26.1
	H156.1z M139.8,308.8H130v17.6h10.4c11.1,0,17-3.3,17-8.5C158.1,311.4,152.9,308.8,139.8,308.8z M233.1,336.8V361h-21.5v-23.5
	l-31.3-39.8h23.5l9.1,13c3.9,5.2,7.8,11.7,9.1,15c1.3-3.3,5.2-9.8,9.1-15l9.1-13h23.5L233.1,336.8L233.1,336.8z M314.6,361l-5.9-13
	H282l-5.9,13H254l30.7-63.3h20.9l30.7,63.3H314.6z M300.9,329.7c-2-4.6-4.6-12.4-5.9-15.7c-0.7,3.3-3.3,9.8-5.2,15l-3.3,7.8h17.6
	L300.9,329.7z M395.5,361l-22.2-28c-3.3-3.9-7.2-9.1-9.1-13c0,3.9,0.7,10.4,0.7,14.3V361h-19.6v-63.3h21.5l20.9,28
	c2.6,3.9,7.2,9.8,9.8,13c0-3.9-0.7-11.1-0.7-15v-26.1h19.6V361H395.5L395.5,361z M485.5,361l-5.9-13h-26.7l-5.9,13h-22.2l30.7-63.3
	H477l30.7,63.3H485.5L485.5,361z M471.8,329.7c-2-4.6-4.6-12.4-5.9-15.7c-0.7,3.3-3.3,9.8-5.2,15l-3.3,7.8h17.6L471.8,329.7
	L471.8,329.7z M516.2,361v-63.3h21.5V361H516.2L516.2,361z M603.5,361l-18.9-24.1h-7.2V361h-21.5v-63.3h32
	c23.5,0,38.5,6.5,38.5,19.6c0,9.1-8.5,14.3-20.2,17.6L627,361H603.5z M587.2,308.8h-9.8v17.6h10.4c11.1,0,17-3.3,17-8.5
	C605.5,311.4,600.3,308.8,587.2,308.8z"/>
<g>
	<path class="st1" d="M74,295.1c4.6,1.3,9.1,2.6,13.7,3.3h3.3c2,0,3.3-0.7,5.2-1.3h0.7c0,0.7,0,0.7-0.7,1.3c-2.6,2-5.2,3.3-7.8,3.9
		c-0.7,0-2,0.7-2.6,0.7c-3.3,1.3-7.2,1.3-10.4,1.3c-6.5-0.7-12.4-2.6-18.9-2.6c-5.9-0.7-11.7,2-15,6.5c-0.7,2.6-2,5.2-2,7.8
		c0,2.6,3.9,3.3,5.2,5.2l2,3.9c0.7,2.6,2,5.2,3.9,7.8c1.3,1.3,2.6,3.3,4.6,3.9c2.6,2,4.6,3.9,5.9,6.5c1.3,2.6,2.6,4.6,3.3,7.2
		c0.7,1.3,1.3,2.6,1.3,4.6v0.7c0.7,1.3,0.7,2.6,1.3,3.3v0.7c0,0.7,0.7,2,0,2c-1.3-1.3-2-2.6-2.6-3.9c-0.7-2.6-2.6-5.2-4.6-7.8
		c-1.3-1.3-2.6-3.3-3.9-4.6c-5.2-5.9-13-9.8-18.9-15c0,0,0-0.7-0.7-1.3c-0.7-1.3-1.3-2-2-3.3c-1.3-2.6-3.3-5.2-4.6-8.5
		c0-1.3-0.7-2.6-0.7-3.9v-0.7c0-1.3-3.3-2-1.3-4.6c1.3-1.3,5.2-2.6,6.5-5.2v-1.3c0,0,0-0.7-0.7-0.7s-2.6,1.3-2.6-0.7v-2
		c0.7-1.3,0.7-2.6,0.7-3.9c0-0.7,0.7-0.7,1.3-0.7s2-0.7,2.6-0.7c2,0,4.6,0,5.9,1.3c0.7,1.3,0,2.6,0,3.9s-1.3,2-0.7,2.6H42
		c2.6-2,5.2-4.6,7.8-7.2c2-2,5.2-2.6,7.8-2C63.5,291.8,68.1,293.8,74,295.1L74,295.1z"/>
	<path class="st1" d="M59,305.5c0.7,1.3,0,2-0.7,3.3c-3.3,4.6-4.6,10.4-6.5,15.7h-0.7c-0.7,0-0.7-0.7-0.7-1.3c0-5.9,2-11.1,4.6-16.3
		c0.7-0.7,1.3-2,2.6-1.3C58.3,304.9,58.3,305.5,59,305.5L59,305.5z M68.1,306.8c0.7,2-0.7,3.3-1.3,5.2c-3.3,6.5-7.2,13-9.1,20.2
		c0,0,0,0.7-0.7,0.7h-0.7c-0.7-2.6,0-5.9,0.7-8.5c2-5.9,3.9-11.7,7.2-17.6c0.7,0,0.7-0.7,0.7-0.7C66.1,306.2,67.4,306.2,68.1,306.8
		L68.1,306.8z M77.2,307.5c0.7,0.7,0.7,2,0,2.6c-3.9,8.5-9.8,15.7-12.4,24.8l-2,5.9c0,0.7-0.7,0.7-0.7,0c-0.7-0.7,0-2,0-2.6
		c0.7-7.2,2.6-14.3,5.9-20.2c1.3-3.3,3.3-5.9,4.6-9.1c0.7-0.7,1.3-2,2.6-2C75.9,306.8,76.6,306.8,77.2,307.5L77.2,307.5z
		 M87.7,308.1c0.7,1.3,0,2,0,3.3c-2.6,6.5-7.2,12.4-10.4,18.9c-3.3,5.2-5.2,11.1-7.2,16.3c-0.7,2-1.3,3.3-2,5.2h-0.7
		c-0.7-0.7-0.7-1.3-0.7-2c0.7-7.2,3.3-13,5.9-19.6c3.3-7.2,7.2-13.7,10.4-20.9c0.7-0.7,1.3-2,2.6-2.6
		C86.3,306.8,87,306.8,87.7,308.1L87.7,308.1z"/>
</g>
</svg>
